<svg width="24" height="24" viewBox="0 0 24 24" fill="none" xmlns="http://www.w3.org/2000/svg">
<rect width="24" height="24" rx="2" fill="white"/>
<path d="M10.8825 11.4769C10.8825 11.4769 12.4411 11.3673 12.4411 9.63569C12.4411 7.90396 11.166 7.05884 9.55064 7.05884H4.23529V16.736H9.55064C9.55064 16.736 12.7955 16.8331 12.7955 13.8798C12.7955 13.8798 12.9369 11.4769 10.8825 11.4769V11.4769ZM9.16805 8.77885H9.55064C9.55064 8.77885 10.2732 8.77885 10.2732 9.78572C10.2732 10.7925 9.84824 10.9384 9.36628 10.9384H6.5773V8.77885H9.16805V8.77885ZM9.40044 15.0161H6.5773V12.43H9.55064C9.55064 12.43 10.6275 12.4166 10.6275 13.759C10.6275 14.8909 9.8232 15.0075 9.40044 15.0161V15.0161ZM17.123 9.521C13.1948 9.521 13.1983 13.2393 13.1983 13.2393C13.1983 13.2393 12.9288 16.9384 17.123 16.9384C17.123 16.9384 20.6182 17.1276 20.6182 14.3651H18.8207C18.8207 14.3651 18.8806 15.4054 17.183 15.4054C17.183 15.4054 15.3852 15.5196 15.3852 13.7218H20.6781C20.6781 13.7218 21.2573 9.521 17.123 9.521ZM15.3654 12.43C15.3654 12.43 15.5849 10.9384 17.1629 10.9384C18.7407 10.9384 18.7209 12.43 18.7209 12.43H15.3654ZM19.1396 8.82062H14.9253V7.62895H19.1396V8.82062Z" fill="black"/>
</svg>
