<svg width="24" height="24" viewBox="0 0 24 24" fill="none" xmlns="http://www.w3.org/2000/svg">
<rect width="24" height="24" rx="2" fill="white"/>
<path d="M4 12C4 10.5493 4.35734 9.21067 5.072 7.984C5.78667 6.75733 6.75734 5.78667 7.984 5.072C9.21067 4.35733 10.5493 4 12 4C13.4507 4 14.7893 4.35733 16.016 5.072C17.2427 5.78667 18.2133 6.75733 18.928 7.984C19.6427 9.21067 20 10.5493 20 12C20 13.4507 19.6427 14.7893 18.928 16.016C18.2133 17.2427 17.2427 18.2133 16.016 18.928C14.7893 19.6427 13.4507 20 12 20C10.5493 20 9.21067 19.6427 7.984 18.928C6.75734 18.2133 5.78667 17.2427 5.072 16.016C4.35734 14.7893 4 13.4507 4 12ZM5.328 12C5.328 13.664 5.888 15.1307 7.008 16.4C7.52 15.3973 8.33067 14.4427 9.44 13.536C10.5493 12.6293 11.632 12.0587 12.688 11.824C12.528 11.4507 12.3733 11.1147 12.224 10.816C10.3893 11.4027 8.40534 11.696 6.272 11.696C5.856 11.696 5.54667 11.6907 5.344 11.68C5.344 11.7227 5.34134 11.776 5.336 11.84C5.33067 11.904 5.328 11.9573 5.328 12ZM5.536 10.352C5.77067 10.3733 6.11734 10.384 6.576 10.384C8.35734 10.384 10.048 10.144 11.648 9.664C10.8373 8.224 9.94667 7.024 8.976 6.064C8.13334 6.49067 7.41067 7.08267 6.808 7.84C6.20534 8.59733 5.78134 9.43467 5.536 10.352ZM7.92 17.264C9.12534 18.2027 10.4853 18.672 12 18.672C12.7893 18.672 13.5733 18.5227 14.352 18.224C14.1387 16.4 13.7227 14.6347 13.104 12.928C12.1227 13.1413 11.1333 13.68 10.136 14.544C9.13867 15.408 8.4 16.3147 7.92 17.264ZM10.368 5.552C11.3067 6.52267 12.176 7.73333 12.976 9.184C14.4267 8.576 15.52 7.80267 16.256 6.864C15.0187 5.84 13.6 5.328 12 5.328C11.456 5.328 10.912 5.40267 10.368 5.552ZM13.552 10.32C13.712 10.6613 13.8933 11.0933 14.096 11.616C14.8853 11.5413 15.744 11.504 16.672 11.504C17.3333 11.504 17.9893 11.52 18.64 11.552C18.5547 10.1013 18.032 8.81067 17.072 7.68C16.3787 8.71467 15.2053 9.59467 13.552 10.32ZM14.496 12.736C15.04 14.3147 15.408 15.936 15.6 17.6C16.4427 17.056 17.1307 16.3573 17.664 15.504C18.1973 14.6507 18.5173 13.728 18.624 12.736C17.8453 12.6827 17.136 12.656 16.496 12.656C15.9093 12.656 15.2427 12.6827 14.496 12.736Z" fill="black"/>
</svg>
