<svg width="24" height="24" viewBox="0 0 24 24" fill="none" xmlns="http://www.w3.org/2000/svg">
<rect width="24" height="24" rx="2" fill="white"/>
<path d="M12 4C9.82734 4 9.55489 4.00922 8.7016 4.04813C7.8501 4.08698 7.26855 4.22224 6.75968 4.41997C6.23361 4.62441 5.78747 4.89797 5.34273 5.34271C4.89797 5.78744 4.62441 6.23363 4.41999 6.7597C4.22221 7.26855 4.087 7.8501 4.04811 8.7016C4.00919 9.55489 4 9.82734 4 12C4 14.1727 4.00919 14.4451 4.04811 15.2984C4.087 16.1499 4.22221 16.7314 4.41999 17.2403C4.62444 17.7664 4.898 18.2125 5.34273 18.6573C5.78749 19.102 6.23361 19.3756 6.75968 19.58C7.26855 19.7778 7.8501 19.913 8.7016 19.9519C9.55489 19.9908 9.82734 20 12 20C14.1727 20 14.4451 19.9908 15.2984 19.9519C16.1499 19.913 16.7314 19.7778 17.2403 19.58C17.7664 19.3756 18.2125 19.102 18.6573 18.6573C19.102 18.2125 19.3756 17.7664 19.58 17.2403C19.7778 16.7314 19.913 16.1499 19.9519 15.2984C19.9908 14.4451 20 14.1727 20 12C20 9.82734 19.9908 9.55489 19.9519 8.7016C19.913 7.8501 19.7778 7.26855 19.58 6.7597C19.3756 6.23363 19.102 5.78744 18.6573 5.34271C18.2125 4.89797 17.7664 4.62441 17.2403 4.41997C16.7314 4.22224 16.1499 4.08698 15.2984 4.04813C14.4451 4.00922 14.1727 4 12 4ZM12 5.44143C14.1361 5.44143 14.3891 5.4496 15.2327 5.48809C16.0127 5.52365 16.4363 5.65397 16.7182 5.76353C17.0916 5.90867 17.3581 6.08201 17.638 6.36196C17.918 6.6419 18.0913 6.90842 18.2365 7.28182C18.346 7.56372 18.4764 7.98733 18.5119 8.76731C18.5504 9.61089 18.5586 9.86392 18.5586 12C18.5586 14.1361 18.5504 14.3891 18.5119 15.2327C18.4764 16.0127 18.346 16.4363 18.2365 16.7182C18.0913 17.0916 17.918 17.3581 17.638 17.638C17.3581 17.918 17.0916 18.0913 16.7182 18.2365C16.4363 18.346 16.0127 18.4764 15.2327 18.5119C14.3893 18.5504 14.1362 18.5586 12 18.5586C9.86375 18.5586 9.61079 18.5504 8.76731 18.5119C7.98731 18.4764 7.56372 18.346 7.28184 18.2365C6.90839 18.0913 6.6419 17.918 6.36198 17.638C6.08204 17.3581 5.90867 17.0916 5.76353 16.7182C5.65397 16.4363 5.52367 16.0127 5.48809 15.2327C5.4496 14.3891 5.44143 14.1361 5.44143 12C5.44143 9.86392 5.4496 9.61089 5.48809 8.76731C5.52367 7.98731 5.65397 7.56372 5.76353 7.28184C5.90867 6.90839 6.08204 6.6419 6.36196 6.36198C6.6419 6.08201 6.90842 5.90867 7.28182 5.76353C7.56372 5.65397 7.98733 5.52365 8.76731 5.48809C9.61089 5.4496 9.86392 5.44143 12 5.44143" fill="#100F0D"/>
<path d="M12 14.6667C10.5272 14.6667 9.33334 13.4728 9.33334 12C9.33334 10.5272 10.5272 9.33332 12 9.33332C13.4728 9.33332 14.6667 10.5272 14.6667 12C14.6667 13.4728 13.4728 14.6667 12 14.6667ZM12 7.89189C9.73115 7.89189 7.89191 9.73114 7.89191 12C7.89191 14.2689 9.73115 16.1081 12 16.1081C14.2689 16.1081 16.1081 14.2689 16.1081 12C16.1081 9.73114 14.2689 7.89189 12 7.89189M17.2304 7.72958C17.2304 8.25979 16.8006 8.68957 16.2704 8.68957C15.7403 8.68957 15.3104 8.25979 15.3104 7.72958C15.3104 7.19939 15.7403 6.76956 16.2704 6.76956C16.8006 6.76956 17.2304 7.19939 17.2304 7.72958" fill="#100F0D"/>
</svg>
