<svg width="24" height="24" viewBox="0 0 24 24" fill="none" xmlns="http://www.w3.org/2000/svg">
<rect width="24" height="24" rx="2" fill="white"/>
<rect x="4" y="4" width="17" height="16" fill="#100F0D"/>
<path d="M19.0639 18.1893H16.2705V13.7804C16.2705 12.7291 16.2518 11.3757 14.8176 11.3757C13.3626 11.3757 13.14 12.5211 13.14 13.7039V18.189H10.3466V9.12254H13.0283V10.3616H13.0658C13.3342 9.8991 13.722 9.51866 14.188 9.26076C14.6539 9.00286 15.1805 8.87715 15.7118 8.89702C18.5431 8.89702 19.0651 10.7739 19.0651 13.2156L19.0639 18.1893ZM7.19458 7.88322C6.87396 7.88328 6.56052 7.78752 6.2939 7.60805C6.02728 7.42857 5.81946 7.17345 5.69671 6.87495C5.57396 6.57644 5.5418 6.24795 5.60429 5.93102C5.66678 5.61409 5.82113 5.32296 6.0478 5.09443C6.27447 4.86591 6.56329 4.71026 6.87774 4.64716C7.19219 4.58406 7.51815 4.61636 7.81438 4.73996C8.11062 4.86356 8.36384 5.07292 8.54201 5.34156C8.72019 5.61019 8.81532 5.92605 8.81538 6.24917C8.81542 6.46372 8.77352 6.67617 8.69209 6.8744C8.61066 7.07264 8.49128 7.25276 8.34078 7.4045C8.19027 7.55623 8.01159 7.67661 7.81492 7.75874C7.61826 7.84088 7.40746 7.88318 7.19458 7.88322ZM8.59132 18.1893H5.79493V9.12254H8.59132V18.1893ZM20.4566 2.00129H4.39121C4.02657 1.99715 3.67521 2.13907 3.41435 2.39587C3.15348 2.65267 3.00445 3.00334 3 3.37082V19.6289C3.0043 19.9966 3.15323 20.3475 3.41409 20.6045C3.67495 20.8616 4.02639 21.0038 4.39121 20.9999H20.4566C20.8222 21.0045 21.1746 20.8627 21.4365 20.6056C21.6983 20.3486 21.8483 19.9973 21.8533 19.6289V3.36965C21.8481 3.00143 21.6981 2.65037 21.4362 2.39357C21.1743 2.13678 20.822 1.99526 20.4566 2.00012" fill="white"/>
</svg>
