<svg width="24" height="24" viewBox="0 0 24 24" fill="none" xmlns="http://www.w3.org/2000/svg">
<rect width="24" height="24" rx="2" fill="white"/>
<path d="M20 7.53801C19.4115 7.7991 18.7794 7.9756 18.1148 8.05493C18.7931 7.64886 19.3127 7.00538 19.558 6.23953C18.9137 6.62212 18.2086 6.89147 17.4732 7.03587C16.8748 6.39815 16.0215 6 15.0774 6C13.2652 6 11.7956 7.46872 11.7956 9.28149C11.7956 9.53834 11.8245 9.78892 11.8801 10.0295C9.15222 9.89244 6.73373 8.58604 5.11491 6.60096C4.83224 7.08577 4.67045 7.64945 4.67045 8.25087C4.67045 9.38921 5.24998 10.3936 6.13056 10.9819C5.60927 10.9657 5.09942 10.8251 4.64363 10.5716V10.6131C4.64363 12.2032 5.77485 13.529 7.27649 13.8305C7.00064 13.9061 6.71115 13.9456 6.41166 13.9456C6.19992 13.9456 5.99448 13.9256 5.79379 13.8878C6.21148 15.1911 7.42367 16.1397 8.85955 16.1666C7.7362 17.0469 6.32074 17.5717 4.7834 17.5717C4.51861 17.5717 4.25691 17.5559 4 17.525C5.45279 18.4563 7.17773 19 9.03139 19C15.0684 19 18.3701 13.9997 18.3701 9.66342C18.3701 9.52106 18.367 9.37976 18.3601 9.23897C19.0034 8.77379 19.5587 8.19781 20 7.53801V7.53801Z" fill="#100F0D"/>
</svg>
